<?xml version="1.0" standalone="no"?>
<!DOCTYPE svg PUBLIC "-//W3C//DTD SVG 20010904//EN"
 "http://www.w3.org/TR/2001/REC-SVG-20010904/DTD/svg10.dtd">
<svg version="1.0" xmlns="http://www.w3.org/2000/svg"
 width="512.000000pt" height="512.000000pt" viewBox="0 0 512.000000 512.000000"
 preserveAspectRatio="xMidYMid meet">
<metadata>
Created by potrace 1.14, written by Peter Selinger 2001-2017
</metadata>
<g transform="translate(0.000000,512.000000) scale(0.100000,-0.100000)"
fill="#000000" stroke="none">
<path d="M1545 5015 c-24 -23 -25 -30 -25 -149 0 -110 -2 -125 -17 -130 -10
-3 -319 -62 -688 -131 -369 -70 -681 -132 -695 -138 -13 -7 -29 -24 -34 -39
-7 -20 83 -491 413 -2165 398 -2018 423 -2139 447 -2161 14 -12 34 -22 46 -22
11 0 385 72 830 160 l809 160 1180 0 1180 0 24 25 25 24 0 1873 0 1873 -423
422 -422 423 -1313 0 -1313 0 -24 -25z m2535 -515 c0 -367 1 -381 20 -400 19
-19 33 -20 270 -20 l250 0 0 -24 c0 -29 -35 -82 -73 -110 -28 -20 -41 -21
-408 -24 l-379 -3 0 81 0 80 -160 0 -160 0 0 320 0 320 -80 0 -80 0 0 -380 c0
-367 1 -381 20 -400 l20 -20 -60 0 -60 0 0 50 c0 74 -18 147 -57 232 l-36 77
35 40 c41 48 58 98 58 170 0 91 -51 171 -135 210 -40 19 -63 21 -212 21 -157
0 -168 -1 -190 -22 l-23 -21 0 -379 0 -378 -127 0 -128 0 40 19 c46 20 101 79
121 127 11 26 14 103 14 344 l0 310 -79 0 -80 0 -3 -295 c-3 -291 -3 -295 -26
-317 -19 -20 -33 -23 -92 -23 -59 0 -73 3 -92 23 -23 22 -23 26 -26 317 l-3
295 -80 0 -79 0 0 -310 c0 -241 3 -318 14 -344 20 -48 71 -101 119 -125 l42
-21 -247 0 -248 0 0 480 0 480 1200 0 1200 0 0 -380z m-1071 36 c14 -13 21
-31 21 -56 0 -59 -24 -73 -136 -78 l-94 -4 0 82 0 82 94 -4 c75 -3 99 -8 115
-22z m-65 -329 c37 -48 75 -136 81 -187 3 -25 8 -57 10 -72 l5 -28 -120 0
-120 0 0 160 0 160 59 0 c56 0 62 -2 85 -33z m1936 -2127 l0 -1520 -1600 0
-1600 0 0 1520 0 1520 1600 0 1600 0 0 -1520z"/>
<path d="M3092 3266 c-223 -43 -411 -136 -574 -286 -107 -98 -230 -273 -269
-382 l-13 -38 -93 0 c-86 0 -96 -2 -118 -25 l-25 -24 0 -351 0 -351 25 -24
c22 -23 32 -25 118 -25 l93 0 13 -37 c39 -110 162 -285 269 -383 140 -129 302
-217 490 -268 86 -22 117 -26 267 -26 188 -1 272 14 423 75 264 105 509 344
608 591 l19 48 93 0 c85 0 95 2 117 25 l25 24 0 351 0 351 -25 24 c-22 23 -32
25 -118 25 l-93 0 -13 38 c-39 109 -162 284 -269 382 -141 129 -304 218 -490
267 -121 31 -345 40 -460 19z m-114 -519 c9 -11 56 -39 104 -63 l88 -44 152 0
153 0 23 -35 c12 -19 22 -37 22 -40 0 -3 -247 -5 -550 -5 -440 0 -550 3 -550
13 0 26 119 194 183 260 74 75 208 166 295 202 l57 23 3 -146 c2 -122 5 -149
20 -165z m1422 -587 l0 -240 -1120 0 -1120 0 0 240 0 240 1120 0 1120 0 0
-240z m-260 -405 c0 -12 -45 -93 -81 -146 -113 -166 -321 -314 -520 -369 -106
-29 -254 -41 -358 -29 -85 10 -187 32 -199 43 -3 4 9 21 26 39 31 32 32 34 32
130 l0 97 99 0 c115 0 104 -8 206 148 l60 92 368 0 c202 0 367 -2 367 -5z"/>
</g>
</svg>
