<svg id="Layer_1" data-name="Layer 1" xmlns="http://www.w3.org/2000/svg" width="100" height="100" viewBox="0 0 100 100">
  <title>dice</title>
  <g>
    <path d="M86.61133,6.46115H13.379a7.05464,7.05464,0,0,0-6.91784,7.18391V86.35494A7.05464,7.05464,0,0,0,13.379,93.53885H86.621a7.05464,7.05464,0,0,0,6.91784-7.18391V13.65511A7.06452,7.06452,0,0,0,86.61133,6.46115Z" style="fill: #fff;stroke: #e92e3d;stroke-miterlimit: 10;stroke-width: 3px"/>
    <path d="M26.34067,33.80355a9.13453,9.13453,0,0,1-8.95611-9.29387,9.13778,9.13778,0,0,1,8.95611-9.30727,9.139,9.139,0,0,1,8.96255,9.30727A9.1357,9.1357,0,0,1,26.34067,33.80355Z" style="fill: #e92e3d"/>
    <path d="M74.71716,83.50482a9.30719,9.30719,0,1,1,8.95611-9.30057A9.13732,9.13732,0,0,1,74.71716,83.50482Z" style="fill: #e92e3d"/>
    <path d="M74.20115,33.96766a9.13452,9.13452,0,0,1-8.9561-9.29387,8.96248,8.96248,0,1,1,17.9122,0A9.13452,9.13452,0,0,1,74.20115,33.96766Z" style="fill: #e92e3d"/>
    <path d="M26.56,83.29382a9.30719,9.30719,0,0,1,0-18.60113,9.30694,9.30694,0,0,1,0,18.60113Z" style="fill: #e92e3d"/>
    <path d="M49.98065,59.39686A9.31067,9.31067,0,1,1,58.93676,50.103,9.13869,9.13869,0,0,1,49.98065,59.39686Z" style="fill: #e92e3d"/>
  </g>
</svg>
