<svg id="Layer_1" data-name="Layer 1" xmlns="http://www.w3.org/2000/svg" width="100" height="100" viewBox="0 0 100 100">
  <title>dice</title>
  <g>
    <path d="M6.46115,13.38867V86.621a7.05464,7.05464,0,0,0,7.18391,6.91784H86.35159a7.05794,7.05794,0,0,0,7.18726-6.92106V13.38867a7.08529,7.08529,0,0,0-7.194-6.92752H13.65511A7.06451,7.06451,0,0,0,6.46115,13.38867Z" style="fill: #fff;stroke: #e92e3d;stroke-miterlimit: 10;stroke-width: 3px"/>
    <ellipse cx="24.49628" cy="73.62063" rx="9.30057" ry="8.96255" style="fill: #e92e3d"/>
    <path d="M83.756,24.51526a9.31067,9.31067,0,0,1-18.60783,0,9.31067,9.31067,0,0,1,18.60783,0Z" style="fill: #e92e3d"/>
    <path d="M58.88863,49.9871a9.30719,9.30719,0,1,1-9.30057-8.9561A9.13306,9.13306,0,0,1,58.88863,49.9871Z" style="fill: #e92e3d"/>
  </g>
</svg>
