<svg id="Layer_1" data-name="Layer 1" xmlns="http://www.w3.org/2000/svg" width="100" height="100" viewBox="0 0 100 100">
  <title>dice</title>
  <g>
    <path d="M86.621,6.46115H13.38221a7.05794,7.05794,0,0,0-6.92106,7.18726V86.35494A7.05464,7.05464,0,0,0,13.379,93.53885h73.2388a7.05794,7.05794,0,0,0,6.92106-7.18726V13.64506A7.05464,7.05464,0,0,0,86.621,6.46115Z" style="fill: #fff;stroke: #e92e3d;stroke-miterlimit: 10;stroke-width: 3px"/>
    <path d="M26.35357,33.80355A9.14312,9.14312,0,0,1,17.391,24.49628a9.14576,9.14576,0,0,1,8.96255-9.30057,9.13832,9.13832,0,0,1,8.9561,9.30057A9.13569,9.13569,0,0,1,26.35357,33.80355Z" style="fill: #e92e3d"/>
    <path d="M74.02377,58.89532a9.30694,9.30694,0,1,1,8.96255-9.30057A9.13039,9.13039,0,0,1,74.02377,58.89532Z" style="fill: #e92e3d"/>
    <ellipse cx="26.48257" cy="49.59475" rx="8.9561" ry="9.30057" style="fill: #e92e3d"/>
    <ellipse cx="74.72039" cy="74.20425" rx="8.95933" ry="9.30057" style="fill: #e92e3d"/>
    <path d="M74.2076,33.96431a9.13452,9.13452,0,0,1-8.9561-9.29387,8.96248,8.96248,0,1,1,17.91221,0A9.13665,9.13665,0,0,1,74.2076,33.96431Z" style="fill: #e92e3d"/>
    <path d="M26.56965,83.29382a9.30719,9.30719,0,0,1,0-18.60114,9.30694,9.30694,0,0,1,0,18.60114Z" style="fill: #e92e3d"/>
  </g>
</svg>
